<mxfile host="app.diagrams.net" modified="2020-11-03T18:53:19.072Z" agent="5.0 (Windows NT 10.0; Win64; x64) AppleWebKit/537.36 (KHTML, like Gecko) Chrome/86.0.4240.111 Safari/537.36 OPR/72.0.3815.186" etag="DGH-jA2LPTpqYJeL-4Hu" version="13.8.8" type="github">
  <diagram id="e-WigeDOqtfbk5GwBnc8" name="Page-1">
    <mxGraphModel dx="890" dy="385" grid="1" gridSize="10" guides="1" tooltips="1" connect="1" arrows="1" fold="1" page="1" pageScale="1" pageWidth="827" pageHeight="1169" math="0" shadow="0">
      <root>
        <mxCell id="0" />
        <mxCell id="1" parent="0" />
        <mxCell id="5pN-PdKG7ZaArv_9rpso-1" value="Inicio" style="ellipse;whiteSpace=wrap;html=1;aspect=fixed;" parent="1" vertex="1">
          <mxGeometry x="100" width="80" height="80" as="geometry" />
        </mxCell>
        <mxCell id="5pN-PdKG7ZaArv_9rpso-2" value="" style="endArrow=classic;html=1;exitX=0.5;exitY=1;exitDx=0;exitDy=0;entryX=0.5;entryY=0;entryDx=0;entryDy=0;" parent="1" source="5pN-PdKG7ZaArv_9rpso-1" target="5pN-PdKG7ZaArv_9rpso-3" edge="1">
          <mxGeometry width="50" height="50" relative="1" as="geometry">
            <mxPoint x="320" y="230" as="sourcePoint" />
            <mxPoint x="140" y="110" as="targetPoint" />
          </mxGeometry>
        </mxCell>
        <mxCell id="5pN-PdKG7ZaArv_9rpso-3" value="peso=0.0&lt;br&gt;est=0.0&lt;br&gt;imc=0.0&lt;br&gt;" style="rounded=0;whiteSpace=wrap;html=1;" parent="1" vertex="1">
          <mxGeometry x="80" y="110" width="120" height="60" as="geometry" />
        </mxCell>
        <mxCell id="5pN-PdKG7ZaArv_9rpso-4" value="" style="endArrow=classic;html=1;exitX=0.5;exitY=1;exitDx=0;exitDy=0;" parent="1" source="5pN-PdKG7ZaArv_9rpso-3" target="5pN-PdKG7ZaArv_9rpso-6" edge="1">
          <mxGeometry width="50" height="50" relative="1" as="geometry">
            <mxPoint x="320" y="210" as="sourcePoint" />
            <mxPoint x="370" y="160" as="targetPoint" />
          </mxGeometry>
        </mxCell>
        <mxCell id="5pN-PdKG7ZaArv_9rpso-5" style="edgeStyle=orthogonalEdgeStyle;rounded=0;orthogonalLoop=1;jettySize=auto;html=1;entryX=0.5;entryY=0;entryDx=0;entryDy=0;" parent="1" source="5pN-PdKG7ZaArv_9rpso-6" target="5pN-PdKG7ZaArv_9rpso-8" edge="1">
          <mxGeometry relative="1" as="geometry">
            <mxPoint x="140" y="310" as="targetPoint" />
          </mxGeometry>
        </mxCell>
        <mxCell id="5pN-PdKG7ZaArv_9rpso-6" value="&quot;Programa que calcula el indice de masa corporal&quot;" style="ellipse;whiteSpace=wrap;html=1;" parent="1" vertex="1">
          <mxGeometry x="60" y="200" width="160" height="80" as="geometry" />
        </mxCell>
        <mxCell id="5pN-PdKG7ZaArv_9rpso-7" style="edgeStyle=orthogonalEdgeStyle;rounded=0;orthogonalLoop=1;jettySize=auto;html=1;" parent="1" source="5pN-PdKG7ZaArv_9rpso-8" target="5pN-PdKG7ZaArv_9rpso-10" edge="1">
          <mxGeometry relative="1" as="geometry" />
        </mxCell>
        <mxCell id="5pN-PdKG7ZaArv_9rpso-8" value="&quot;Ingresa tu peso: &quot;" style="ellipse;whiteSpace=wrap;html=1;" parent="1" vertex="1">
          <mxGeometry x="45" y="310" width="190" height="80" as="geometry" />
        </mxCell>
        <mxCell id="5pN-PdKG7ZaArv_9rpso-9" style="edgeStyle=orthogonalEdgeStyle;rounded=0;orthogonalLoop=1;jettySize=auto;html=1;entryX=0.5;entryY=0;entryDx=0;entryDy=0;" parent="1" source="5pN-PdKG7ZaArv_9rpso-10" target="5pN-PdKG7ZaArv_9rpso-12" edge="1">
          <mxGeometry relative="1" as="geometry" />
        </mxCell>
        <mxCell id="5pN-PdKG7ZaArv_9rpso-10" value="peso" style="shape=parallelogram;perimeter=parallelogramPerimeter;whiteSpace=wrap;html=1;fixedSize=1;" parent="1" vertex="1">
          <mxGeometry x="80" y="420" width="120" height="30" as="geometry" />
        </mxCell>
        <mxCell id="5pN-PdKG7ZaArv_9rpso-11" style="edgeStyle=orthogonalEdgeStyle;rounded=0;orthogonalLoop=1;jettySize=auto;html=1;" parent="1" source="5pN-PdKG7ZaArv_9rpso-12" target="5pN-PdKG7ZaArv_9rpso-14" edge="1">
          <mxGeometry relative="1" as="geometry" />
        </mxCell>
        <mxCell id="5pN-PdKG7ZaArv_9rpso-12" value="&quot;Ingresa tu estatura: &quot;" style="ellipse;whiteSpace=wrap;html=1;" parent="1" vertex="1">
          <mxGeometry x="45" y="480" width="190" height="80" as="geometry" />
        </mxCell>
        <mxCell id="bdOzDudBH0JlxRzhKq3J-2" style="edgeStyle=orthogonalEdgeStyle;rounded=0;orthogonalLoop=1;jettySize=auto;html=1;exitX=0.5;exitY=1;exitDx=0;exitDy=0;" edge="1" parent="1" source="5pN-PdKG7ZaArv_9rpso-14" target="bdOzDudBH0JlxRzhKq3J-1">
          <mxGeometry relative="1" as="geometry" />
        </mxCell>
        <mxCell id="5pN-PdKG7ZaArv_9rpso-14" value="est" style="shape=parallelogram;perimeter=parallelogramPerimeter;whiteSpace=wrap;html=1;fixedSize=1;" parent="1" vertex="1">
          <mxGeometry x="80" y="590" width="120" height="30" as="geometry" />
        </mxCell>
        <mxCell id="5pN-PdKG7ZaArv_9rpso-15" style="edgeStyle=orthogonalEdgeStyle;rounded=0;orthogonalLoop=1;jettySize=auto;html=1;entryX=0.5;entryY=0;entryDx=0;entryDy=0;" parent="1" source="5pN-PdKG7ZaArv_9rpso-17" edge="1">
          <mxGeometry relative="1" as="geometry">
            <mxPoint x="270" y="919.9999999999998" as="targetPoint" />
          </mxGeometry>
        </mxCell>
        <mxCell id="5pN-PdKG7ZaArv_9rpso-16" style="edgeStyle=orthogonalEdgeStyle;rounded=0;orthogonalLoop=1;jettySize=auto;html=1;exitX=0.5;exitY=1;exitDx=0;exitDy=0;entryX=0.5;entryY=0;entryDx=0;entryDy=0;" parent="1" source="5pN-PdKG7ZaArv_9rpso-17" edge="1">
          <mxGeometry relative="1" as="geometry">
            <mxPoint x="80" y="919.9999999999998" as="targetPoint" />
          </mxGeometry>
        </mxCell>
        <mxCell id="5pN-PdKG7ZaArv_9rpso-17" value="imc&amp;gt;=25" style="rhombus;whiteSpace=wrap;html=1;" parent="1" vertex="1">
          <mxGeometry x="100" y="810" width="80" height="80" as="geometry" />
        </mxCell>
        <mxCell id="5pN-PdKG7ZaArv_9rpso-19" style="edgeStyle=orthogonalEdgeStyle;rounded=0;orthogonalLoop=1;jettySize=auto;html=1;" parent="1" edge="1">
          <mxGeometry relative="1" as="geometry">
            <mxPoint x="270" y="1100" as="targetPoint" />
            <mxPoint x="270" y="979.9999999999998" as="sourcePoint" />
          </mxGeometry>
        </mxCell>
        <mxCell id="5pN-PdKG7ZaArv_9rpso-21" value="Si" style="text;html=1;align=center;verticalAlign=middle;resizable=0;points=[];autosize=1;" parent="1" vertex="1">
          <mxGeometry x="95" y="890" width="30" height="20" as="geometry" />
        </mxCell>
        <mxCell id="5pN-PdKG7ZaArv_9rpso-22" value="No" style="text;html=1;align=center;verticalAlign=middle;resizable=0;points=[];autosize=1;" parent="1" vertex="1">
          <mxGeometry x="205" y="830" width="30" height="20" as="geometry" />
        </mxCell>
        <mxCell id="5pN-PdKG7ZaArv_9rpso-27" style="edgeStyle=orthogonalEdgeStyle;rounded=0;orthogonalLoop=1;jettySize=auto;html=1;entryX=0.5;entryY=0;entryDx=0;entryDy=0;" parent="1" target="5pN-PdKG7ZaArv_9rpso-25" edge="1">
          <mxGeometry relative="1" as="geometry">
            <Array as="points">
              <mxPoint x="80" y="1030" />
              <mxPoint x="270" y="1030" />
            </Array>
            <mxPoint x="80" y="979.9999999999998" as="sourcePoint" />
          </mxGeometry>
        </mxCell>
        <mxCell id="5pN-PdKG7ZaArv_9rpso-25" value="Fin" style="ellipse;whiteSpace=wrap;html=1;aspect=fixed;" parent="1" vertex="1">
          <mxGeometry x="230" y="1100" width="80" height="80" as="geometry" />
        </mxCell>
        <mxCell id="bdOzDudBH0JlxRzhKq3J-3" style="edgeStyle=orthogonalEdgeStyle;rounded=0;orthogonalLoop=1;jettySize=auto;html=1;entryX=0.5;entryY=0;entryDx=0;entryDy=0;" edge="1" parent="1" source="bdOzDudBH0JlxRzhKq3J-1" target="5pN-PdKG7ZaArv_9rpso-17">
          <mxGeometry relative="1" as="geometry" />
        </mxCell>
        <mxCell id="bdOzDudBH0JlxRzhKq3J-1" value="imc=peso / (est*est)" style="rounded=0;whiteSpace=wrap;html=1;" vertex="1" parent="1">
          <mxGeometry x="80" y="650" width="120" height="60" as="geometry" />
        </mxCell>
        <mxCell id="bdOzDudBH0JlxRzhKq3J-4" value="&quot;Esta en sobrepeso has mas ejercicio: &quot;+&quot;tu indice de masa conrporal es &quot;+imc" style="ellipse;whiteSpace=wrap;html=1;" vertex="1" parent="1">
          <mxGeometry x="20" y="920" width="160" height="70" as="geometry" />
        </mxCell>
        <mxCell id="bdOzDudBH0JlxRzhKq3J-5" value="&quot;Tu peso es saludable: &quot;+&quot;tu indice de masa conrporal es &quot;+imc" style="ellipse;whiteSpace=wrap;html=1;" vertex="1" parent="1">
          <mxGeometry x="210" y="920" width="150" height="60" as="geometry" />
        </mxCell>
      </root>
    </mxGraphModel>
  </diagram>
</mxfile>
